<svg xmlns="http://www.w3.org/2000/svg" viewBox="0 0 1600 400" width="1600" height="400" font-family="serif">
<defs>
  <linearGradient id="ignite" x1="0" y1="0" x2="1" y2="0">
    <stop offset="0" stop-color="#e8a04b"/><stop offset="0.5" stop-color="#5ef2c0"/><stop offset="1" stop-color="#9fb4d6"/>
  </linearGradient>
  <radialGradient id="vig" cx="50%" cy="46%" r="72%">
    <stop offset="52%" stop-color="#000" stop-opacity="0"/><stop offset="100%" stop-color="#000" stop-opacity="0.65"/>
  </radialGradient>
  <filter id="grain"><feTurbulence type="fractalNoise" baseFrequency="0.9" numOctaves="3" stitchTiles="stitch"/>
    <feColorMatrix type="saturate" values="0"/></filter>
  <filter id="soft" x="-40%" y="-40%" width="180%" height="180%"><feGaussianBlur stdDeviation="11"/></filter>
</defs>
<rect width="1600" height="400" fill="#050506"/>
<rect width="1600" height="400" fill="url(#vig)"/>
<rect width="1600" height="400" filter="url(#grain)" opacity="0.05"/>
<!-- glow under the cycling word -->
<path d="M912.58,95.00 L911.83,126.64 L906.14,126.64 Q906.42,117.80 905.06,111.97 Q903.73,106.11 899.74,103.18 Q895.78,100.25 887.98,100.39 L875.23,100.55 L870.28,182.14 Q870.14,186.20 869.83,189.12 Q869.53,192.05 869.23,194.00 Q871.33,193.86 873.42,193.79 Q875.53,193.70 877.55,193.55 Q879.58,193.39 881.67,193.39 L881.39,200.00 L846.73,200.00 L847.03,195.05 Q851.98,194.75 854.15,192.36 Q856.33,189.95 857.08,185.82 Q857.83,181.70 858.14,176.61 L862.78,100.55 L847.33,100.70 Q837.89,100.70 833.67,107.00 Q829.48,113.30 828.73,126.64 L823.17,126.64 L825.73,95.00 L912.58,95.00 Z M955.48,123.36 Q960.87,123.36 965.68,125.00 Q970.48,126.64 973.48,130.39 Q976.48,134.14 976.48,140.61 Q976.48,146.75 972.27,151.25 Q968.07,155.75 961.32,158.68 Q954.57,161.61 946.93,163.41 Q939.29,165.20 932.23,165.95 Q932.23,175.25 934.11,181.55 Q935.98,187.86 939.73,191.00 Q943.48,194.14 949.32,194.14 Q953.68,194.14 958.11,192.20 Q962.54,190.25 966.57,186.29 Q970.62,182.30 973.93,176.00 L978.87,178.86 Q974.68,186.64 969.87,191.75 Q965.07,196.86 959.37,199.25 Q953.68,201.64 946.79,201.64 Q932.54,201.64 925.79,192.73 Q919.04,183.80 919.04,169.25 Q919.04,160.55 921.29,152.30 Q923.54,144.05 928.04,137.54 Q932.54,131.00 939.43,127.18 Q946.32,123.36 955.48,123.36 Z M953.37,128.45 Q946.48,128.45 942.05,133.11 Q937.62,137.75 935.30,145.11 Q932.98,152.45 932.37,160.55 Q940.32,159.50 947.52,156.80 Q954.73,154.11 959.37,149.84 Q964.04,145.55 964.04,139.86 Q964.04,135.05 961.41,131.75 Q958.79,128.45 953.37,128.45 Z M1016.84,86.75 Q1016.37,90.50 1015.55,95.16 Q1014.73,99.80 1014.05,104.30 Q1013.37,108.80 1012.92,112.25 Q1012.03,118.55 1011.12,126.59 Q1010.23,134.61 1009.32,143.23 Q1008.42,151.86 1007.75,160.11 Q1007.09,168.36 1006.62,175.18 Q1006.17,182.00 1006.17,186.36 Q1006.17,189.20 1006.76,191.68 Q1007.37,194.14 1010.23,194.14 Q1012.78,194.14 1015.85,190.93 Q1018.92,187.70 1021.17,179.61 L1025.37,180.64 Q1024.92,183.20 1023.50,186.80 Q1022.09,190.39 1019.67,193.77 Q1017.28,197.14 1013.91,199.39 Q1010.53,201.64 1006.03,201.64 Q999.87,201.64 997.01,198.57 Q994.17,195.50 994.03,189.50 Q993.87,185.75 994.39,178.41 Q994.92,171.05 995.75,161.68 Q996.59,152.30 997.62,142.04 Q998.67,131.75 999.87,122.00 Q1001.09,112.25 1002.12,104.30 Q1002.87,100.25 1003.10,98.98 Q1003.34,97.70 1003.48,96.20 Q1000.78,96.36 998.16,96.50 Q995.53,96.64 992.84,96.80 L993.59,90.80 Q1000.17,90.80 1003.85,90.22 Q1007.53,89.61 1009.48,88.72 Q1011.42,87.80 1012.62,86.75 L1016.84,86.75 Z M1059.29,86.75 Q1058.82,90.50 1058.00,95.16 Q1057.18,99.80 1056.50,104.30 Q1055.82,108.80 1055.37,112.25 Q1054.48,118.55 1053.57,126.59 Q1052.68,134.61 1051.77,143.23 Q1050.87,151.86 1050.20,160.11 Q1049.54,168.36 1049.07,175.18 Q1048.62,182.00 1048.62,186.36 Q1048.62,189.20 1049.21,191.68 Q1049.82,194.14 1052.68,194.14 Q1055.23,194.14 1058.30,190.93 Q1061.37,187.70 1063.62,179.61 L1067.82,180.64 Q1067.37,183.20 1065.95,186.80 Q1064.54,190.39 1062.12,193.77 Q1059.73,197.14 1056.36,199.39 Q1052.98,201.64 1048.48,201.64 Q1042.32,201.64 1039.46,198.57 Q1036.62,195.50 1036.48,189.50 Q1036.32,185.75 1036.84,178.41 Q1037.37,171.05 1038.20,161.68 Q1039.04,152.30 1040.07,142.04 Q1041.12,131.75 1042.32,122.00 Q1043.54,112.25 1044.57,104.30 Q1045.32,100.25 1045.55,98.98 Q1045.79,97.70 1045.93,96.20 Q1043.23,96.36 1040.61,96.50 Q1037.98,96.64 1035.29,96.80 L1036.04,90.80 Q1042.62,90.80 1046.30,90.22 Q1049.98,89.61 1051.93,88.72 Q1053.87,87.80 1055.07,86.75 L1059.29,86.75 Z" filter="url(#soft)" opacity="0.45" fill="#e8a04b"><animate attributeName="fill" dur="9s" repeatCount="indefinite" calcMode="spline" keyTimes="0;0.28;0.36;0.62;0.70;0.95;1" values="#e8a04b;#e8a04b;#5ef2c0;#5ef2c0;#9fb4d6;#9fb4d6;#e8a04b" keySplines="0 0 1 1;.16 1 .3 1;0 0 1 1;.16 1 .3 1;0 0 1 1;.16 1 .3 1"/></path>
<!-- wordmark -->
<path d="M615.73,126.64 Q615.57,117.80 613.91,111.97 Q612.27,106.11 608.14,103.18 Q604.02,100.25 596.23,100.39 L583.48,100.39 L583.32,182.14 Q583.32,186.20 583.25,189.12 Q583.18,192.05 582.88,194.00 Q586.02,193.86 589.09,193.72 Q592.18,193.55 595.32,193.39 L595.32,200.00 L560.07,200.00 L560.07,195.05 Q565.77,194.75 567.78,192.36 Q569.82,189.95 570.03,185.82 Q570.27,181.70 570.27,176.61 L570.43,100.55 L554.98,100.70 Q545.52,100.70 541.63,107.00 Q537.73,113.30 537.73,126.64 L532.18,126.64 L533.07,95.00 L620.52,95.00 L621.43,126.64 L615.73,126.64 Z M679.63,195.50 Q684.27,195.50 686.07,193.18 Q687.88,190.86 688.18,186.73 Q688.48,182.61 688.48,177.20 L688.48,156.20 Q688.48,143.30 684.36,136.86 Q680.23,130.39 671.38,130.55 Q665.82,130.70 660.50,133.25 Q655.18,135.80 651.88,139.86 L651.88,184.11 Q651.88,187.11 651.71,189.43 Q651.57,191.75 651.13,194.30 Q653.52,194.14 655.84,194.07 Q658.18,194.00 660.57,193.86 L660.57,200.00 L629.98,200.00 L629.98,195.50 Q634.63,195.50 636.43,193.18 Q638.23,190.86 638.61,186.73 Q638.98,182.61 638.98,177.20 L638.98,106.25 Q638.98,103.86 639.05,101.68 Q639.13,99.50 639.43,96.50 Q636.73,96.64 634.11,96.80 Q631.48,96.95 628.77,97.11 L628.77,90.80 Q635.38,90.80 639.05,90.22 Q642.73,89.61 644.61,88.72 Q646.48,87.80 647.52,86.75 L651.88,86.75 L651.88,132.50 Q655.18,129.64 659.30,127.48 Q663.43,125.30 667.84,123.97 Q672.27,122.61 676.48,122.61 Q689.52,122.61 695.28,130.79 Q701.07,138.95 701.23,156.20 L701.38,184.11 Q701.38,187.11 701.30,189.43 Q701.23,191.75 700.77,194.30 Q703.18,194.14 705.50,194.07 Q707.82,194.00 710.23,193.86 L710.23,200.00 L679.63,200.00 L679.63,195.50 Z M757.62,202.39 Q747.28,202.39 738.94,197.52 Q730.62,192.64 725.81,183.73 Q721.03,174.80 721.03,162.64 Q721.03,152.14 725.74,143.00 Q730.48,133.86 739.03,128.23 Q747.58,122.61 758.83,122.61 Q765.12,122.61 770.60,124.62 Q776.08,126.64 780.28,130.77 Q784.48,134.89 786.87,141.12 Q789.28,147.36 789.28,155.75 L736.48,156.64 Q736.48,168.05 738.94,176.68 Q741.42,185.30 746.98,190.04 Q752.53,194.75 761.23,194.75 Q765.87,194.75 770.74,193.11 Q775.62,191.45 779.81,188.61 Q784.03,185.75 786.58,182.30 L790.17,185.30 Q786.12,191.61 780.42,195.36 Q774.73,199.11 768.73,200.75 Q762.73,202.39 757.62,202.39 Z M736.92,150.36 L775.17,150.36 Q775.17,144.95 773.60,139.93 Q772.03,134.89 768.42,131.68 Q764.83,128.45 758.98,128.45 Q750.28,128.45 744.49,133.62 Q738.73,138.80 736.92,150.36 Z" fill="#ece7df"/>
<path d="M912.58,95.00 L911.83,126.64 L906.14,126.64 Q906.42,117.80 905.06,111.97 Q903.73,106.11 899.74,103.18 Q895.78,100.25 887.98,100.39 L875.23,100.55 L870.28,182.14 Q870.14,186.20 869.83,189.12 Q869.53,192.05 869.23,194.00 Q871.33,193.86 873.42,193.79 Q875.53,193.70 877.55,193.55 Q879.58,193.39 881.67,193.39 L881.39,200.00 L846.73,200.00 L847.03,195.05 Q851.98,194.75 854.15,192.36 Q856.33,189.95 857.08,185.82 Q857.83,181.70 858.14,176.61 L862.78,100.55 L847.33,100.70 Q837.89,100.70 833.67,107.00 Q829.48,113.30 828.73,126.64 L823.17,126.64 L825.73,95.00 L912.58,95.00 Z M955.48,123.36 Q960.87,123.36 965.68,125.00 Q970.48,126.64 973.48,130.39 Q976.48,134.14 976.48,140.61 Q976.48,146.75 972.27,151.25 Q968.07,155.75 961.32,158.68 Q954.57,161.61 946.93,163.41 Q939.29,165.20 932.23,165.95 Q932.23,175.25 934.11,181.55 Q935.98,187.86 939.73,191.00 Q943.48,194.14 949.32,194.14 Q953.68,194.14 958.11,192.20 Q962.54,190.25 966.57,186.29 Q970.62,182.30 973.93,176.00 L978.87,178.86 Q974.68,186.64 969.87,191.75 Q965.07,196.86 959.37,199.25 Q953.68,201.64 946.79,201.64 Q932.54,201.64 925.79,192.73 Q919.04,183.80 919.04,169.25 Q919.04,160.55 921.29,152.30 Q923.54,144.05 928.04,137.54 Q932.54,131.00 939.43,127.18 Q946.32,123.36 955.48,123.36 Z M953.37,128.45 Q946.48,128.45 942.05,133.11 Q937.62,137.75 935.30,145.11 Q932.98,152.45 932.37,160.55 Q940.32,159.50 947.52,156.80 Q954.73,154.11 959.37,149.84 Q964.04,145.55 964.04,139.86 Q964.04,135.05 961.41,131.75 Q958.79,128.45 953.37,128.45 Z M1016.84,86.75 Q1016.37,90.50 1015.55,95.16 Q1014.73,99.80 1014.05,104.30 Q1013.37,108.80 1012.92,112.25 Q1012.03,118.55 1011.12,126.59 Q1010.23,134.61 1009.32,143.23 Q1008.42,151.86 1007.75,160.11 Q1007.09,168.36 1006.62,175.18 Q1006.17,182.00 1006.17,186.36 Q1006.17,189.20 1006.76,191.68 Q1007.37,194.14 1010.23,194.14 Q1012.78,194.14 1015.85,190.93 Q1018.92,187.70 1021.17,179.61 L1025.37,180.64 Q1024.92,183.20 1023.50,186.80 Q1022.09,190.39 1019.67,193.77 Q1017.28,197.14 1013.91,199.39 Q1010.53,201.64 1006.03,201.64 Q999.87,201.64 997.01,198.57 Q994.17,195.50 994.03,189.50 Q993.87,185.75 994.39,178.41 Q994.92,171.05 995.75,161.68 Q996.59,152.30 997.62,142.04 Q998.67,131.75 999.87,122.00 Q1001.09,112.25 1002.12,104.30 Q1002.87,100.25 1003.10,98.98 Q1003.34,97.70 1003.48,96.20 Q1000.78,96.36 998.16,96.50 Q995.53,96.64 992.84,96.80 L993.59,90.80 Q1000.17,90.80 1003.85,90.22 Q1007.53,89.61 1009.48,88.72 Q1011.42,87.80 1012.62,86.75 L1016.84,86.75 Z M1059.29,86.75 Q1058.82,90.50 1058.00,95.16 Q1057.18,99.80 1056.50,104.30 Q1055.82,108.80 1055.37,112.25 Q1054.48,118.55 1053.57,126.59 Q1052.68,134.61 1051.77,143.23 Q1050.87,151.86 1050.20,160.11 Q1049.54,168.36 1049.07,175.18 Q1048.62,182.00 1048.62,186.36 Q1048.62,189.20 1049.21,191.68 Q1049.82,194.14 1052.68,194.14 Q1055.23,194.14 1058.30,190.93 Q1061.37,187.70 1063.62,179.61 L1067.82,180.64 Q1067.37,183.20 1065.95,186.80 Q1064.54,190.39 1062.12,193.77 Q1059.73,197.14 1056.36,199.39 Q1052.98,201.64 1048.48,201.64 Q1042.32,201.64 1039.46,198.57 Q1036.62,195.50 1036.48,189.50 Q1036.32,185.75 1036.84,178.41 Q1037.37,171.05 1038.20,161.68 Q1039.04,152.30 1040.07,142.04 Q1041.12,131.75 1042.32,122.00 Q1043.54,112.25 1044.57,104.30 Q1045.32,100.25 1045.55,98.98 Q1045.79,97.70 1045.93,96.20 Q1043.23,96.36 1040.61,96.50 Q1037.98,96.64 1035.29,96.80 L1036.04,90.80 Q1042.62,90.80 1046.30,90.22 Q1049.98,89.61 1051.93,88.72 Q1053.87,87.80 1055.07,86.75 L1059.29,86.75 Z" fill="#e8a04b"><animate attributeName="fill" dur="9s" repeatCount="indefinite" calcMode="spline" keyTimes="0;0.28;0.36;0.62;0.70;0.95;1" values="#e8a04b;#e8a04b;#5ef2c0;#5ef2c0;#9fb4d6;#9fb4d6;#e8a04b" keySplines="0 0 1 1;.16 1 .3 1;0 0 1 1;.16 1 .3 1;0 0 1 1;.16 1 .3 1"/></path>
<rect x="559.0" y="234.0" width="482.1" height="2.5" fill="url(#ignite)"/>
<!-- tagline -->
<path d="M517.54,294.54 Q517.54,290.37 516.68,288.57 Q515.82,286.78 513.87,286.78 Q511.93,286.78 511.07,288.57 Q510.21,290.37 510.21,294.54 Q510.21,298.71 511.07,300.50 Q511.93,302.29 513.87,302.29 Q515.82,302.29 516.68,300.50 Q517.54,298.72 517.54,294.54 Z M520.22,294.54 Q520.22,299.49 518.65,301.93 Q517.08,304.37 513.87,304.37 Q510.65,304.37 509.09,301.94 Q507.53,299.52 507.53,294.54 Q507.53,289.58 509.10,287.14 Q510.67,284.70 513.87,284.70 Q517.08,284.70 518.65,287.14 Q520.22,289.58 520.22,294.54 Z" fill="#a7a29a"/><path d="M529.22,285.04 L532.47,285.04 L538.87,300.65 L538.87,285.04 L541.34,285.04 L541.34,304.00 L538.09,304.00 L531.70,288.40 L531.70,304.00 L529.22,304.00 L529.22,285.04 Z" fill="#a7a29a"/><path d="M550.34,285.04 L561.59,285.04 L561.59,287.21 L552.91,287.21 L552.91,292.82 L561.21,292.82 L561.21,294.97 L552.91,294.97 L552.91,301.84 L561.83,301.84 L561.83,304.00 L550.34,304.00 L550.34,285.04 Z" fill="#a7a29a"/><path d="M590.75,285.04 L594.18,285.04 L597.46,294.69 L600.75,285.04 L604.20,285.04 L604.20,304.00 L601.82,304.00 L601.82,287.25 L598.45,297.24 L596.50,297.24 L593.11,287.25 L593.11,304.00 L590.75,304.00 L590.75,285.04 Z" fill="#a7a29a"/><path d="M613.20,285.04 L623.72,285.04 L623.72,287.21 L619.75,287.21 L619.75,301.84 L623.72,301.84 L623.72,304.00 L613.20,304.00 L613.20,301.84 L617.17,301.84 L617.17,287.21 L613.20,287.21 L613.20,285.04 Z" fill="#a7a29a"/><path d="M632.72,285.04 L635.97,285.04 L642.37,300.65 L642.37,285.04 L644.85,285.04 L644.85,304.00 L641.60,304.00 L635.20,288.40 L635.20,304.00 L632.72,304.00 L632.72,285.04 Z" fill="#a7a29a"/><path d="M657.65,301.89 Q660.88,301.89 662.16,300.30 Q663.45,298.71 663.45,294.54 Q663.45,290.34 662.17,288.75 Q660.90,287.15 657.65,287.15 L656.43,287.15 L656.43,301.89 L657.65,301.89 Z M657.70,285.04 Q662.04,285.04 664.09,287.36 Q666.15,289.67 666.15,294.54 Q666.15,299.39 664.09,301.70 Q662.04,304.00 657.70,304.00 L653.85,304.00 L653.85,285.04 L657.70,285.04 Z" fill="#a7a29a"/><path d="M689.55,293.03 L692.75,293.03 L692.75,296.90 L689.55,296.90 L689.55,293.03 Z" fill="#7c776f"/><path d="M723.98,295.05 Q724.97,295.30 725.67,296.01 Q726.37,296.71 727.41,298.82 L729.99,304.00 L727.23,304.00 L724.97,299.21 Q724.00,297.17 723.22,296.58 Q722.44,295.99 721.18,295.99 L718.73,295.99 L718.73,304.00 L716.15,304.00 L716.15,285.04 L721.43,285.04 Q724.56,285.04 726.22,286.45 Q727.88,287.86 727.88,290.53 Q727.88,292.41 726.86,293.60 Q725.84,294.78 723.98,295.05 Z M718.73,287.15 L718.73,293.88 L721.53,293.88 Q723.37,293.88 724.28,293.06 Q725.18,292.23 725.18,290.53 Q725.18,288.89 724.22,288.02 Q723.26,287.15 721.43,287.15 L718.73,287.15 Z" fill="#e8a04b"/><path d="M738.99,285.04 L750.23,285.04 L750.23,287.21 L741.55,287.21 L741.55,292.82 L749.86,292.82 L749.86,294.97 L741.55,294.97 L741.55,301.84 L750.48,301.84 L750.48,304.00 L738.99,304.00 L738.99,285.04 Z" fill="#e8a04b"/><path d="M766.83,287.31 L764.12,297.00 L769.53,297.00 L766.83,287.31 Z M765.28,285.04 L768.39,285.04 L774.19,304.00 L771.53,304.00 L770.14,299.06 L763.50,299.06 L762.13,304.00 L759.48,304.00 L765.28,285.04 Z" fill="#e8a04b"/><path d="M786.99,301.89 Q790.22,301.89 791.51,300.30 Q792.79,298.71 792.79,294.54 Q792.79,290.34 791.51,288.75 Q790.24,287.15 786.99,287.15 L785.77,287.15 L785.77,301.89 L786.99,301.89 Z M787.04,285.04 Q791.38,285.04 793.44,287.36 Q795.49,289.67 795.49,294.54 Q795.49,299.39 793.44,301.70 Q791.38,304.00 787.04,304.00 L783.19,304.00 L783.19,285.04 L787.04,285.04 Z" fill="#e8a04b"/><path d="M818.89,293.03 L822.09,293.03 L822.09,296.90 L818.89,296.90 L818.89,293.03 Z" fill="#7c776f"/><path d="M848.07,294.95 L848.07,301.89 L851.10,301.89 Q853.34,301.89 854.29,301.11 Q855.24,300.33 855.24,298.54 Q855.24,296.69 854.24,295.82 Q853.24,294.95 851.10,294.95 L848.07,294.95 Z M848.07,287.15 L848.07,292.86 L851.06,292.86 Q852.91,292.86 853.74,292.15 Q854.57,291.44 854.57,289.86 Q854.57,288.42 853.75,287.79 Q852.93,287.15 851.06,287.15 L848.07,287.15 Z M845.49,285.04 L851.10,285.04 Q854.01,285.04 855.58,286.30 Q857.16,287.56 857.16,289.86 Q857.16,291.60 856.33,292.60 Q855.50,293.60 853.83,293.86 Q855.70,294.14 856.76,295.45 Q857.82,296.76 857.82,298.80 Q857.82,301.37 856.13,302.69 Q854.44,304.00 851.10,304.00 L845.49,304.00 L845.49,285.04 Z" fill="#5ef2c0"/><path d="M874.65,295.05 Q875.64,295.30 876.34,296.01 Q877.04,296.71 878.08,298.82 L880.66,304.00 L877.90,304.00 L875.64,299.21 Q874.66,297.17 873.88,296.58 Q873.10,295.99 871.84,295.99 L869.39,295.99 L869.39,304.00 L866.82,304.00 L866.82,285.04 L872.10,285.04 Q875.22,285.04 876.89,286.45 Q878.55,287.86 878.55,290.53 Q878.55,292.41 877.52,293.60 Q876.50,294.78 874.65,295.05 Z M869.39,287.15 L869.39,293.88 L872.20,293.88 Q874.04,293.88 874.94,293.06 Q875.85,292.23 875.85,290.53 Q875.85,288.89 874.89,288.02 Q873.93,287.15 872.10,287.15 L869.39,287.15 Z" fill="#5ef2c0"/><path d="M889.66,285.04 L900.90,285.04 L900.90,287.21 L892.22,287.21 L892.22,292.82 L900.52,292.82 L900.52,294.97 L892.22,294.97 L892.22,301.84 L901.14,301.84 L901.14,304.00 L889.66,304.00 L889.66,285.04 Z" fill="#5ef2c0"/><path d="M917.49,287.31 L914.79,297.00 L920.20,297.00 L917.49,287.31 Z M915.95,285.04 L919.05,285.04 L924.86,304.00 L922.20,304.00 L920.81,299.06 L914.17,299.06 L912.80,304.00 L910.14,304.00 L915.95,285.04 Z" fill="#5ef2c0"/><path d="M933.86,285.04 L936.44,285.04 L936.44,293.47 L944.45,285.04 L947.46,285.04 L940.08,292.79 L947.67,304.00 L944.58,304.00 L938.39,294.50 L936.44,296.59 L936.44,304.00 L933.86,304.00 L933.86,285.04 Z" fill="#5ef2c0"/><path d="M971.07,293.03 L974.27,293.03 L974.27,296.90 L971.07,296.90 L971.07,293.03 Z" fill="#7c776f"/><path d="M1000.25,294.95 L1000.25,301.89 L1003.28,301.89 Q1005.52,301.89 1006.47,301.11 Q1007.42,300.33 1007.42,298.54 Q1007.42,296.69 1006.42,295.82 Q1005.42,294.95 1003.28,294.95 L1000.25,294.95 Z M1000.25,287.15 L1000.25,292.86 L1003.23,292.86 Q1005.09,292.86 1005.92,292.15 Q1006.75,291.44 1006.75,289.86 Q1006.75,288.42 1005.93,287.79 Q1005.11,287.15 1003.23,287.15 L1000.25,287.15 Z M997.67,285.04 L1003.28,285.04 Q1006.19,285.04 1007.76,286.30 Q1009.34,287.56 1009.34,289.86 Q1009.34,291.60 1008.51,292.60 Q1007.67,293.60 1006.01,293.86 Q1007.88,294.14 1008.94,295.45 Q1010.00,296.76 1010.00,298.80 Q1010.00,301.37 1008.31,302.69 Q1006.62,304.00 1003.28,304.00 L997.67,304.00 L997.67,285.04 Z" fill="#9fb4d6"/><path d="M1019.00,296.72 L1019.00,285.04 L1021.58,285.04 L1021.58,297.89 Q1021.58,299.28 1021.65,299.87 Q1021.73,300.46 1021.92,300.77 Q1022.33,301.53 1023.09,301.91 Q1023.86,302.29 1024.95,302.29 Q1026.06,302.29 1026.82,301.91 Q1027.58,301.53 1028.00,300.77 Q1028.19,300.46 1028.27,299.88 Q1028.34,299.29 1028.34,297.92 L1028.34,285.04 L1030.91,285.04 L1030.91,296.72 Q1030.91,299.63 1030.55,300.86 Q1030.19,302.08 1029.30,302.88 Q1028.46,303.63 1027.38,304.00 Q1026.30,304.37 1024.95,304.37 Q1023.62,304.37 1022.54,304.00 Q1021.46,303.63 1020.61,302.88 Q1019.74,302.09 1019.37,300.85 Q1019.00,299.60 1019.00,296.72 Z" fill="#9fb4d6"/><path d="M1039.91,285.04 L1050.44,285.04 L1050.44,287.21 L1046.46,287.21 L1046.46,301.84 L1050.44,301.84 L1050.44,304.00 L1039.91,304.00 L1039.91,301.84 L1043.88,301.84 L1043.88,287.21 L1039.91,287.21 L1039.91,285.04 Z" fill="#9fb4d6"/><path d="M1059.44,285.04 L1062.01,285.04 L1062.01,301.84 L1071.16,301.84 L1071.16,304.00 L1059.44,304.00 L1059.44,285.04 Z" fill="#9fb4d6"/><path d="M1083.96,301.89 Q1087.20,301.89 1088.48,300.30 Q1089.76,298.71 1089.76,294.54 Q1089.76,290.34 1088.49,288.75 Q1087.21,287.15 1083.96,287.15 L1082.74,287.15 L1082.74,301.89 L1083.96,301.89 Z M1084.01,285.04 Q1088.35,285.04 1090.41,287.36 Q1092.47,289.67 1092.47,294.54 Q1092.47,299.39 1090.41,301.70 Q1088.35,304.00 1084.01,304.00 L1080.16,304.00 L1080.16,285.04 L1084.01,285.04 Z" fill="#9fb4d6"/>
<!-- owner -->
<path d="M462.01,344.49 Q462.62,344.65 463.05,345.08 Q463.48,345.51 464.12,346.81 L465.70,350.00 L464.01,350.00 L462.62,347.06 Q462.01,345.80 461.53,345.44 Q461.05,345.07 460.28,345.07 L458.77,345.07 L458.77,350.00 L457.19,350.00 L457.19,338.33 L460.44,338.33 Q462.36,338.33 463.38,339.20 Q464.40,340.07 464.40,341.71 Q464.40,342.87 463.77,343.60 Q463.15,344.33 462.01,344.49 Z M458.77,339.63 L458.77,343.77 L460.50,343.77 Q461.63,343.77 462.19,343.26 Q462.74,342.76 462.74,341.71 Q462.74,340.70 462.15,340.17 Q461.56,339.63 460.44,339.63 L458.77,339.63 Z" fill="#7c776f"/><path d="M475.22,339.73 L473.56,345.69 L476.89,345.69 L475.22,339.73 Z M474.27,338.33 L476.18,338.33 L479.76,350.00 L478.12,350.00 L477.26,346.96 L473.18,346.96 L472.33,350.00 L470.70,350.00 L474.27,338.33 Z" fill="#7c776f"/><path d="M487.09,348.70 Q489.08,348.70 489.87,347.72 Q490.66,346.74 490.66,344.18 Q490.66,341.59 489.88,340.61 Q489.09,339.63 487.09,339.63 L486.34,339.63 L486.34,348.70 L487.09,348.70 Z M487.12,338.33 Q489.80,338.33 491.06,339.76 Q492.33,341.18 492.33,344.18 Q492.33,347.17 491.06,348.58 Q489.80,350.00 487.12,350.00 L484.76,350.00 L484.76,338.33 L487.12,338.33 Z" fill="#7c776f"/><path d="M503.48,344.18 Q503.48,341.61 502.95,340.51 Q502.43,339.40 501.22,339.40 Q500.03,339.40 499.50,340.51 Q498.97,341.61 498.97,344.18 Q498.97,346.74 499.50,347.85 Q500.03,348.94 501.22,348.94 Q502.43,348.94 502.95,347.85 Q503.48,346.75 503.48,344.18 Z M505.13,344.18 Q505.13,347.23 504.17,348.73 Q503.20,350.23 501.22,350.23 Q499.25,350.23 498.29,348.74 Q497.33,347.24 497.33,344.18 Q497.33,341.12 498.29,339.62 Q499.26,338.12 501.22,338.12 Q503.20,338.12 504.17,339.62 Q505.13,341.12 505.13,344.18 Z" fill="#7c776f"/><path d="M516.95,338.74 L516.95,340.33 Q516.23,339.88 515.51,339.64 Q514.79,339.40 514.05,339.40 Q512.94,339.40 512.29,339.93 Q511.64,340.44 511.64,341.33 Q511.64,342.10 512.07,342.51 Q512.49,342.92 513.66,343.19 L514.48,343.38 Q516.12,343.76 516.87,344.58 Q517.62,345.40 517.62,346.81 Q517.62,348.48 516.59,349.35 Q515.56,350.23 513.59,350.23 Q512.77,350.23 511.94,350.05 Q511.12,349.88 510.28,349.52 L510.28,347.84 Q511.18,348.42 511.98,348.68 Q512.78,348.94 513.59,348.94 Q514.79,348.94 515.45,348.41 Q516.12,347.88 516.12,346.92 Q516.12,346.04 515.66,345.58 Q515.20,345.12 514.07,344.87 L513.23,344.67 Q511.60,344.31 510.87,343.56 Q510.13,342.82 510.13,341.57 Q510.13,340.01 511.18,339.07 Q512.23,338.12 513.98,338.12 Q514.65,338.12 515.39,338.28 Q516.13,338.43 516.95,338.74 Z" fill="#7c776f"/><path d="M522.62,338.33 L524.21,338.33 L524.21,348.67 L529.84,348.67 L529.84,350.00 L522.62,350.00 L522.62,338.33 Z" fill="#7c776f"/><path d="M539.36,339.73 L537.70,345.69 L541.03,345.69 L539.36,339.73 Z M538.41,338.33 L540.32,338.33 L543.90,350.00 L542.26,350.00 L541.40,346.96 L537.32,346.96 L536.47,350.00 L534.84,350.00 L538.41,338.33 Z" fill="#7c776f"/><path d="M553.26,348.67 L556.01,338.33 L557.64,338.33 L554.22,350.00 L552.31,350.00 L548.90,338.33 L550.53,338.33 L553.26,348.67 Z" fill="#7c776f"/><path d="M581.18,338.74 L581.18,340.33 Q580.46,339.88 579.74,339.64 Q579.02,339.40 578.28,339.40 Q577.16,339.40 576.52,339.93 Q575.87,340.44 575.87,341.33 Q575.87,342.10 576.29,342.51 Q576.72,342.92 577.88,343.19 L578.71,343.38 Q580.35,343.76 581.10,344.58 Q581.85,345.40 581.85,346.81 Q581.85,348.48 580.82,349.35 Q579.79,350.23 577.82,350.23 Q577.00,350.23 576.17,350.05 Q575.34,349.88 574.51,349.52 L574.51,347.84 Q575.41,348.42 576.21,348.68 Q577.01,348.94 577.82,348.94 Q579.02,348.94 579.68,348.41 Q580.34,347.88 580.34,346.92 Q580.34,346.04 579.89,345.58 Q579.43,345.12 578.30,344.87 L577.45,344.67 Q575.83,344.31 575.09,343.56 Q574.36,342.82 574.36,341.57 Q574.36,340.01 575.41,339.07 Q576.46,338.12 578.20,338.12 Q578.88,338.12 579.62,338.28 Q580.36,338.43 581.18,338.74 Z" fill="#7c776f"/><path d="M586.85,338.33 L588.44,338.33 L588.44,343.12 L592.76,343.12 L592.76,338.33 L594.34,338.33 L594.34,350.00 L592.76,350.00 L592.76,344.44 L588.44,344.44 L588.44,350.00 L586.85,350.00 L586.85,338.33 Z" fill="#7c776f"/><path d="M599.34,338.33 L606.26,338.33 L606.26,339.67 L600.92,339.67 L600.92,343.12 L606.03,343.12 L606.03,344.44 L600.92,344.44 L600.92,348.67 L606.41,348.67 L606.41,350.00 L599.34,350.00 L599.34,338.33 Z" fill="#7c776f"/><path d="M611.41,338.33 L613.09,338.33 L615.94,343.49 L618.77,338.33 L620.47,338.33 L616.73,344.76 L616.73,350.00 L615.14,350.00 L615.14,344.76 L611.41,338.33 Z" fill="#7c776f"/><path d="M625.47,338.33 L634.37,338.33 L634.37,339.67 L630.72,339.67 L630.72,350.00 L629.13,350.00 L629.13,339.67 L625.47,339.67 L625.47,338.33 Z" fill="#7c776f"/><path d="M643.89,339.73 L642.22,345.69 L645.55,345.69 L643.89,339.73 Z M642.94,338.33 L644.85,338.33 L648.42,350.00 L646.79,350.00 L645.93,346.96 L641.84,346.96 L641.00,350.00 L639.37,350.00 L642.94,338.33 Z" fill="#7c776f"/><path d="M653.42,338.33 L655.42,338.33 L659.36,347.94 L659.36,338.33 L660.88,338.33 L660.88,350.00 L658.88,350.00 L654.95,340.40 L654.95,350.00 L653.42,350.00 L653.42,338.33 Z" fill="#7c776f"/><path d="M672.04,344.18 Q672.04,341.61 671.51,340.51 Q670.98,339.40 669.78,339.40 Q668.59,339.40 668.06,340.51 Q667.53,341.61 667.53,344.18 Q667.53,346.74 668.06,347.85 Q668.59,348.94 669.78,348.94 Q670.98,348.94 671.51,347.85 Q672.04,346.75 672.04,344.18 Z M673.69,344.18 Q673.69,347.23 672.72,348.73 Q671.76,350.23 669.78,350.23 Q667.80,350.23 666.84,348.74 Q665.88,347.24 665.88,344.18 Q665.88,341.12 666.85,339.62 Q667.81,338.12 669.78,338.12 Q671.76,338.12 672.72,339.62 Q673.69,341.12 673.69,344.18 Z" fill="#7c776f"/><path d="M683.06,348.67 L685.80,338.33 L687.43,338.33 L684.02,350.00 L682.10,350.00 L678.69,338.33 L680.32,338.33 L683.06,348.67 Z" fill="#7c776f"/><path d="M729.17,339.63 L729.17,344.01 L731.00,344.01 Q732.09,344.01 732.70,343.44 Q733.32,342.86 733.32,341.82 Q733.32,340.78 732.71,340.21 Q732.10,339.63 731.00,339.63 L729.17,339.63 Z M727.59,338.33 L731.00,338.33 Q732.95,338.33 733.96,339.22 Q734.97,340.11 734.97,341.82 Q734.97,343.55 733.96,344.43 Q732.96,345.31 731.00,345.31 L729.17,345.31 L729.17,350.00 L727.59,350.00 L727.59,338.33 Z" fill="#7c776f"/><path d="M744.49,339.73 L742.82,345.69 L746.15,345.69 L744.49,339.73 Z M743.54,338.33 L745.45,338.33 L749.02,350.00 L747.39,350.00 L746.53,346.96 L742.44,346.96 L741.60,350.00 L739.97,350.00 L743.54,338.33 Z" fill="#7c776f"/><path d="M754.02,338.33 L755.70,338.33 L758.54,343.49 L761.38,338.33 L763.08,338.33 L759.33,344.76 L759.33,350.00 L757.75,350.00 L757.75,344.76 L754.02,338.33 Z" fill="#7c776f"/><path d="M768.08,338.33 L770.19,338.33 L772.20,344.27 L774.23,338.33 L776.35,338.33 L776.35,350.00 L774.89,350.00 L774.89,339.69 L772.81,345.84 L771.61,345.84 L769.53,339.69 L769.53,350.00 L768.08,350.00 L768.08,338.33 Z" fill="#7c776f"/><path d="M781.35,338.33 L788.27,338.33 L788.27,339.67 L782.93,339.67 L782.93,343.12 L788.04,343.12 L788.04,344.44 L782.93,344.44 L782.93,348.67 L788.42,348.67 L788.42,350.00 L781.35,350.00 L781.35,338.33 Z" fill="#7c776f"/><path d="M793.42,338.33 L795.42,338.33 L799.36,347.94 L799.36,338.33 L800.88,338.33 L800.88,350.00 L798.88,350.00 L794.94,340.40 L794.94,350.00 L793.42,350.00 L793.42,338.33 Z" fill="#7c776f"/><path d="M805.88,338.33 L814.78,338.33 L814.78,339.67 L811.13,339.67 L811.13,350.00 L809.55,350.00 L809.55,339.67 L805.88,339.67 L805.88,338.33 Z" fill="#7c776f"/><path d="M826.60,338.74 L826.60,340.33 Q825.88,339.88 825.16,339.64 Q824.44,339.40 823.70,339.40 Q822.58,339.40 821.94,339.93 Q821.29,340.44 821.29,341.33 Q821.29,342.10 821.71,342.51 Q822.14,342.92 823.30,343.19 L824.13,343.38 Q825.77,343.76 826.52,344.58 Q827.27,345.40 827.27,346.81 Q827.27,348.48 826.24,349.35 Q825.21,350.23 823.24,350.23 Q822.42,350.23 821.59,350.05 Q820.76,349.88 819.93,349.52 L819.93,347.84 Q820.83,348.42 821.63,348.68 Q822.43,348.94 823.24,348.94 Q824.44,348.94 825.10,348.41 Q825.76,347.88 825.76,346.92 Q825.76,346.04 825.31,345.58 Q824.85,345.12 823.72,344.87 L822.87,344.67 Q821.25,344.31 820.51,343.56 Q819.78,342.82 819.78,341.57 Q819.78,340.01 820.83,339.07 Q821.88,338.12 823.62,338.12 Q824.30,338.12 825.04,338.28 Q825.78,338.43 826.60,338.74 Z" fill="#7c776f"/><path d="M847.82,342.92 L851.07,347.28 Q851.37,346.90 851.52,346.31 Q851.67,345.73 851.67,344.92 Q851.67,344.67 851.65,344.12 L851.64,344.06 L852.92,344.06 L852.92,344.37 Q852.92,345.62 852.63,346.57 Q852.34,347.52 851.76,348.21 L853.09,350.00 L851.42,350.00 L850.81,349.15 Q850.16,349.69 849.44,349.96 Q848.71,350.23 847.88,350.23 Q846.19,350.23 845.09,349.18 Q843.99,348.12 843.99,346.53 Q843.99,345.46 844.53,344.55 Q845.07,343.63 846.16,342.85 Q845.77,342.29 845.58,341.75 Q845.39,341.21 845.39,340.65 Q845.39,339.49 846.17,338.81 Q846.94,338.12 848.30,338.12 Q848.80,338.12 849.32,338.22 Q849.83,338.31 850.37,338.49 L850.37,339.92 Q849.91,339.62 849.42,339.47 Q848.94,339.33 848.40,339.33 Q847.64,339.33 847.20,339.69 Q846.77,340.04 846.77,340.64 Q846.77,341.10 846.99,341.61 Q847.22,342.11 847.82,342.92 Z M846.80,343.73 Q846.08,344.30 845.72,344.94 Q845.37,345.57 845.37,346.29 Q845.37,347.47 846.15,348.25 Q846.93,349.02 848.14,349.02 Q848.47,349.02 848.83,348.93 Q849.19,348.83 849.53,348.65 Q849.74,348.54 849.88,348.45 Q850.02,348.36 850.14,348.26 L846.80,343.73 Z" fill="#7c776f"/><path d="M869.81,338.33 L876.67,338.33 L876.67,339.67 L871.39,339.67 L871.39,343.10 L876.18,343.10 L876.18,344.43 L871.39,344.43 L871.39,350.00 L869.81,350.00 L869.81,338.33 Z" fill="#7c776f"/><path d="M881.67,338.33 L888.15,338.33 L888.15,339.67 L885.71,339.67 L885.71,348.67 L888.15,348.67 L888.15,350.00 L881.67,350.00 L881.67,348.67 L884.12,348.67 L884.12,339.67 L881.67,339.67 L881.67,338.33 Z" fill="#7c776f"/><path d="M893.15,338.33 L895.15,338.33 L899.09,347.94 L899.09,338.33 L900.61,338.33 L900.61,350.00 L898.61,350.00 L894.68,340.40 L894.68,350.00 L893.15,350.00 L893.15,338.33 Z" fill="#7c776f"/><path d="M905.61,338.33 L914.51,338.33 L914.51,339.67 L910.86,339.67 L910.86,350.00 L909.28,350.00 L909.28,339.67 L905.61,339.67 L905.61,338.33 Z" fill="#7c776f"/><path d="M919.51,338.33 L926.43,338.33 L926.43,339.67 L921.09,339.67 L921.09,343.12 L926.20,343.12 L926.20,344.44 L921.09,344.44 L921.09,348.67 L926.58,348.67 L926.58,350.00 L919.51,350.00 L919.51,338.33 Z" fill="#7c776f"/><path d="M938.88,349.58 Q938.28,349.90 937.64,350.06 Q937.01,350.23 936.30,350.23 Q934.06,350.23 932.82,348.64 Q931.58,347.06 931.58,344.18 Q931.58,341.32 932.83,339.72 Q934.07,338.12 936.30,338.12 Q937.01,338.12 937.64,338.29 Q938.28,338.44 938.88,338.76 L938.88,340.38 Q938.30,339.90 937.64,339.65 Q936.97,339.40 936.30,339.40 Q934.76,339.40 934.00,340.59 Q933.23,341.78 933.23,344.18 Q933.23,346.57 934.00,347.76 Q934.76,348.94 936.30,348.94 Q936.99,348.94 937.65,348.69 Q938.31,348.44 938.88,347.97 L938.88,349.58 Z" fill="#7c776f"/><path d="M943.88,338.33 L945.47,338.33 L945.47,343.12 L949.79,343.12 L949.79,338.33 L951.37,338.33 L951.37,350.00 L949.79,350.00 L949.79,344.44 L945.47,344.44 L945.47,350.00 L943.88,350.00 L943.88,338.33 Z" fill="#7c776f"/><path d="M968.09,338.33 L974.57,338.33 L974.57,339.67 L972.12,339.67 L972.12,348.67 L974.57,348.67 L974.57,350.00 L968.09,350.00 L968.09,348.67 L970.54,348.67 L970.54,339.67 L968.09,339.67 L968.09,338.33 Z" fill="#7c776f"/><path d="M979.57,338.33 L981.57,338.33 L985.51,347.94 L985.51,338.33 L987.03,338.33 L987.03,350.00 L985.03,350.00 L981.09,340.40 L981.09,350.00 L979.57,350.00 L979.57,338.33 Z" fill="#7c776f"/><path d="M992.03,338.33 L998.90,338.33 L998.90,339.67 L993.62,339.67 L993.62,343.10 L998.41,343.10 L998.41,344.43 L993.62,344.43 L993.62,350.00 L992.03,350.00 L992.03,338.33 Z" fill="#7c776f"/><path d="M1008.72,344.49 Q1009.33,344.65 1009.76,345.08 Q1010.19,345.51 1010.83,346.81 L1012.41,350.00 L1010.72,350.00 L1009.33,347.06 Q1008.73,345.80 1008.25,345.44 Q1007.77,345.07 1006.99,345.07 L1005.48,345.07 L1005.48,350.00 L1003.90,350.00 L1003.90,338.33 L1007.15,338.33 Q1009.07,338.33 1010.09,339.20 Q1011.12,340.07 1011.12,341.71 Q1011.12,342.87 1010.49,343.60 Q1009.86,344.33 1008.72,344.49 Z M1005.48,339.63 L1005.48,343.77 L1007.21,343.77 Q1008.34,343.77 1008.90,343.26 Q1009.45,342.76 1009.45,341.71 Q1009.45,340.70 1008.86,340.17 Q1008.27,339.63 1007.15,339.63 L1005.48,339.63 Z" fill="#7c776f"/><path d="M1021.94,339.73 L1020.27,345.69 L1023.60,345.69 L1021.94,339.73 Z M1020.98,338.33 L1022.90,338.33 L1026.47,350.00 L1024.83,350.00 L1023.98,346.96 L1019.89,346.96 L1019.05,350.00 L1017.41,350.00 L1020.98,338.33 Z" fill="#7c776f"/><path d="M1038.29,338.74 L1038.29,340.33 Q1037.57,339.88 1036.85,339.64 Q1036.13,339.40 1035.39,339.40 Q1034.27,339.40 1033.63,339.93 Q1032.98,340.44 1032.98,341.33 Q1032.98,342.10 1033.40,342.51 Q1033.83,342.92 1034.99,343.19 L1035.82,343.38 Q1037.46,343.76 1038.21,344.58 Q1038.96,345.40 1038.96,346.81 Q1038.96,348.48 1037.93,349.35 Q1036.90,350.23 1034.93,350.23 Q1034.11,350.23 1033.28,350.05 Q1032.45,349.88 1031.62,349.52 L1031.62,347.84 Q1032.52,348.42 1033.32,348.68 Q1034.12,348.94 1034.93,348.94 Q1036.13,348.94 1036.79,348.41 Q1037.45,347.88 1037.45,346.92 Q1037.45,346.04 1037.00,345.58 Q1036.54,345.12 1035.41,344.87 L1034.56,344.67 Q1032.94,344.31 1032.20,343.56 Q1031.47,342.82 1031.47,341.57 Q1031.47,340.01 1032.52,339.07 Q1033.57,338.12 1035.31,338.12 Q1035.99,338.12 1036.73,338.28 Q1037.47,338.43 1038.29,338.74 Z" fill="#7c776f"/><path d="M1043.96,338.33 L1052.86,338.33 L1052.86,339.67 L1049.21,339.67 L1049.21,350.00 L1047.63,350.00 L1047.63,339.67 L1043.96,339.67 L1043.96,338.33 Z" fill="#7c776f"/><path d="M1062.68,344.49 Q1063.29,344.65 1063.72,345.08 Q1064.15,345.51 1064.79,346.81 L1066.37,350.00 L1064.68,350.00 L1063.29,347.06 Q1062.69,345.80 1062.21,345.44 Q1061.73,345.07 1060.95,345.07 L1059.44,345.07 L1059.44,350.00 L1057.86,350.00 L1057.86,338.33 L1061.11,338.33 Q1063.03,338.33 1064.05,339.20 Q1065.08,340.07 1065.08,341.71 Q1065.08,342.87 1064.45,343.60 Q1063.82,344.33 1062.68,344.49 Z M1059.44,339.63 L1059.44,343.77 L1061.17,343.77 Q1062.30,343.77 1062.86,343.26 Q1063.41,342.76 1063.41,341.71 Q1063.41,340.70 1062.82,340.17 Q1062.23,339.63 1061.11,339.63 L1059.44,339.63 Z" fill="#7c776f"/><path d="M1071.37,345.52 L1071.37,338.33 L1072.96,338.33 L1072.96,346.24 Q1072.96,347.09 1073.01,347.46 Q1073.05,347.82 1073.17,348.01 Q1073.42,348.48 1073.89,348.71 Q1074.37,348.94 1075.04,348.94 Q1075.72,348.94 1076.19,348.71 Q1076.66,348.48 1076.91,348.01 Q1077.03,347.82 1077.08,347.46 Q1077.12,347.10 1077.12,346.26 L1077.12,338.33 L1078.70,338.33 L1078.70,345.52 Q1078.70,347.31 1078.48,348.07 Q1078.26,348.82 1077.71,349.31 Q1077.20,349.77 1076.53,350.00 Q1075.87,350.23 1075.04,350.23 Q1074.22,350.23 1073.55,350.00 Q1072.89,349.77 1072.37,349.31 Q1071.83,348.83 1071.60,348.06 Q1071.37,347.29 1071.37,345.52 Z" fill="#7c776f"/><path d="M1091.00,349.58 Q1090.40,349.90 1089.77,350.06 Q1089.13,350.23 1088.42,350.23 Q1086.18,350.23 1084.94,348.64 Q1083.70,347.06 1083.70,344.18 Q1083.70,341.32 1084.95,339.72 Q1086.20,338.12 1088.42,338.12 Q1089.13,338.12 1089.77,338.29 Q1090.40,338.44 1091.00,338.76 L1091.00,340.38 Q1090.42,339.90 1089.76,339.65 Q1089.10,339.40 1088.42,339.40 Q1086.88,339.40 1086.12,340.59 Q1085.35,341.78 1085.35,344.18 Q1085.35,346.57 1086.12,347.76 Q1086.88,348.94 1088.42,348.94 Q1089.11,348.94 1089.77,348.69 Q1090.43,348.44 1091.00,347.97 L1091.00,349.58 Z" fill="#7c776f"/><path d="M1096.00,338.33 L1104.90,338.33 L1104.90,339.67 L1101.25,339.67 L1101.25,350.00 L1099.67,350.00 L1099.67,339.67 L1096.00,339.67 L1096.00,338.33 Z" fill="#7c776f"/><path d="M1109.90,345.52 L1109.90,338.33 L1111.49,338.33 L1111.49,346.24 Q1111.49,347.09 1111.53,347.46 Q1111.58,347.82 1111.70,348.01 Q1111.95,348.48 1112.42,348.71 Q1112.89,348.94 1113.56,348.94 Q1114.24,348.94 1114.71,348.71 Q1115.18,348.48 1115.44,348.01 Q1115.56,347.82 1115.60,347.46 Q1115.65,347.10 1115.65,346.26 L1115.65,338.33 L1117.23,338.33 L1117.23,345.52 Q1117.23,347.31 1117.01,348.07 Q1116.78,348.82 1116.24,349.31 Q1115.72,349.77 1115.06,350.00 Q1114.39,350.23 1113.56,350.23 Q1112.74,350.23 1112.08,350.00 Q1111.42,349.77 1110.89,349.31 Q1110.35,348.83 1110.13,348.06 Q1109.90,347.29 1109.90,345.52 Z" fill="#7c776f"/><path d="M1127.05,344.49 Q1127.66,344.65 1128.09,345.08 Q1128.52,345.51 1129.16,346.81 L1130.74,350.00 L1129.05,350.00 L1127.66,347.06 Q1127.06,345.80 1126.58,345.44 Q1126.10,345.07 1125.32,345.07 L1123.81,345.07 L1123.81,350.00 L1122.23,350.00 L1122.23,338.33 L1125.48,338.33 Q1127.40,338.33 1128.42,339.20 Q1129.45,340.07 1129.45,341.71 Q1129.45,342.87 1128.82,343.60 Q1128.19,344.33 1127.05,344.49 Z M1123.81,339.63 L1123.81,343.77 L1125.54,343.77 Q1126.67,343.77 1127.23,343.26 Q1127.78,342.76 1127.78,341.71 Q1127.78,340.70 1127.19,340.17 Q1126.60,339.63 1125.48,339.63 L1123.81,339.63 Z" fill="#7c776f"/><path d="M1135.74,338.33 L1142.66,338.33 L1142.66,339.67 L1137.32,339.67 L1137.32,343.12 L1142.43,343.12 L1142.43,344.44 L1137.32,344.44 L1137.32,348.67 L1142.81,348.67 L1142.81,350.00 L1135.74,350.00 L1135.74,338.33 Z" fill="#7c776f"/>
</svg>